<svg width="80" height="49" viewBox="0 0 80 49" fill="none" xmlns="http://www.w3.org/2000/svg">
<path d="M16.6829 48.5714C26.7329 48.5714 33.9571 42.6929 33.9571 34.68C33.9571 28.1771 29.2943 23.9086 21.8057 23.4157V23.2843C28.0457 22.2329 31.92 18.0629 31.92 12.2171C31.92 5.12286 25.4843 0 16.5514 0C9.78714 0 4.30286 2.95571 1.97 7.84857C1.38 9.06286 1.08429 10.18 1.08429 11.4614C1.08429 13.0043 2.13429 14.0229 3.64571 14.0229C5.15571 14.0229 5.81286 13.4657 6.30571 11.9214C7.71714 7.61857 11.33 5.15571 16.3543 5.15571C22.2 5.15571 25.9771 8.24286 25.9771 13.0043C25.9771 17.8986 21.97 21.1486 16.0586 21.1486H12.4471C10.9043 21.1486 9.88571 22.1014 9.88571 23.6129C9.88571 25.09 10.9029 26.0757 12.4471 26.0757H16.1243C23.4157 26.0757 27.75 29.1614 27.75 34.6471C27.75 39.7043 23.25 43.2843 16.75 43.2843C11.0671 43.2843 6.99571 40.7557 5.51714 36.42C5.02429 35.0086 4.20286 34.3843 2.82429 34.3843C1.11714 34.3843 0 35.4357 0 37.1429C0 38.2929 0.295714 39.3429 0.92 40.4929C3.64571 45.6814 9.36 48.5714 16.6829 48.5714ZM43.3171 47.75H56.7814C71.4957 47.75 80 38.9814 80 24.1714C80 9.36 71.4943 0.788572 56.7814 0.788572H43.3171C41.5114 0.788572 40.3614 1.97 40.3614 3.80857V44.6957C40.3614 46.5671 41.5114 47.75 43.3171 47.75ZM46.3057 42.3643V6.10714H56.3871C67.6529 6.10714 73.9243 12.6757 73.9243 24.2029C73.9243 35.7957 67.6529 42.3643 56.3871 42.3643H46.3057Z" fill="#E79423"/>
</svg>
