<svg width="68" height="68" viewBox="0 0 68 68" fill="none" xmlns="http://www.w3.org/2000/svg">
<path d="M5.42712 3.03589C5.42712 2.41429 5.18019 1.81815 4.74066 1.37861C4.30112 0.939069 3.70498 0.692139 3.08337 0.692139C2.46177 0.692139 1.86563 0.939069 1.42609 1.37861C0.986554 1.81815 0.739624 2.41429 0.739624 3.03589V34.464C0.739624 41.6796 0.739624 47.3328 1.33337 51.7453C1.93962 56.2578 3.20837 59.8203 6.00212 62.6171C8.799 65.414 12.3615 66.6796 16.8771 67.2859C21.2865 67.8796 26.9396 67.8796 34.1552 67.8796H65.5834C66.205 67.8796 66.8011 67.6327 67.2407 67.1932C67.6802 66.7536 67.9271 66.1575 67.9271 65.5359C67.9271 64.9143 67.6802 64.3181 67.2407 63.8786C66.8011 63.4391 66.205 63.1921 65.5834 63.1921H34.3334C26.9021 63.1921 21.5646 63.1859 17.5021 62.6421C13.5052 62.1046 11.0959 61.0796 9.31462 59.3015C7.5365 57.5203 6.51462 55.114 5.97712 51.1171C5.43337 47.0546 5.42712 41.7171 5.42712 34.2859V3.03589Z" fill="#E79423"/>
<path d="M58.0458 20.117C58.2437 19.8766 58.3917 19.5992 58.4813 19.3009C58.5708 19.0027 58.6 18.6896 58.5671 18.38C58.5343 18.0703 58.44 17.7703 58.2899 17.4975C58.1399 17.2246 57.9369 16.9845 57.6929 16.791C57.449 16.5974 57.1689 16.4545 56.8691 16.3704C56.5692 16.2864 56.2557 16.2629 55.9467 16.3014C55.6377 16.3399 55.3394 16.4396 55.0694 16.5947C54.7993 16.7497 54.5629 16.957 54.3739 17.2045L44.6301 29.4732C43.8645 30.4389 43.3614 31.067 42.9458 31.5232C42.5395 31.9701 42.352 32.0951 42.2645 32.142C41.9396 32.3152 41.5785 32.4094 41.2104 32.417C40.8423 32.4246 40.4775 32.3454 40.1458 32.1857C40.0583 32.1451 39.8645 32.0295 39.4364 31.6014C39.0051 31.1639 38.4739 30.5545 37.6676 29.6232L37.6145 29.567C36.8739 28.7107 36.2395 27.9795 35.677 27.417C35.1023 26.8024 34.4257 26.2918 33.677 25.9076C32.6808 25.4291 31.5858 25.1922 30.4809 25.2161C29.376 25.24 28.2923 25.524 27.3176 26.0451C26.5847 26.4606 25.9292 26.9998 25.3801 27.6389C24.8489 28.2264 24.2458 28.9826 23.5395 29.8732L13.7489 42.2045C13.5439 42.4438 13.3894 42.7221 13.2944 43.0225C13.1994 43.323 13.166 43.6395 13.1962 43.9532C13.2263 44.2668 13.3194 44.5712 13.4699 44.8481C13.6204 45.1249 13.8251 45.3686 14.0719 45.5645C14.3187 45.7604 14.6025 45.9046 14.9063 45.9883C15.21 46.0721 15.5276 46.0937 15.8399 46.0519C16.1522 46.0102 16.4529 45.9058 16.724 45.7452C16.9951 45.5846 17.231 45.3709 17.4176 45.117L27.1645 32.8482C27.9301 31.8826 28.4333 31.2545 28.8458 30.7982C29.252 30.3514 29.4395 30.2264 29.527 30.1795C29.8519 30.0063 30.2131 29.9121 30.5812 29.9045C30.9493 29.8969 31.314 29.9761 31.6458 30.1357C31.7364 30.1764 31.9301 30.292 32.3551 30.7201C32.7895 31.1576 33.3176 31.767 34.127 32.6982L34.177 32.7545C34.9208 33.6107 35.552 34.342 36.1145 34.9045C36.6926 35.4889 37.3301 36.0357 38.1145 36.4139C39.1107 36.8923 40.2057 37.1292 41.3106 37.1054C42.4156 37.0815 43.4993 36.7975 44.4739 36.2764C45.206 35.8597 45.8613 35.3206 46.4114 34.6826C46.9426 34.0951 47.5458 33.3389 48.2551 32.4482L58.0458 20.117Z" fill="#E79423"/>
</svg>
