<svg width="76" height="60" viewBox="0 0 76 60" fill="none" xmlns="http://www.w3.org/2000/svg">
<path d="M38.3334 6.84839C34.1894 6.84839 30.2151 8.49459 27.2848 11.4248C24.3546 14.3551 22.7084 18.3294 22.7084 22.4734V28.7234H19.5834C17.1459 28.7234 13.9427 29.6671 11.3959 31.7359C8.95212 33.7234 7.08337 36.7609 7.08337 41.2234C7.08337 45.6421 9.00525 48.6859 11.5209 50.6984C14.1334 52.7921 17.3521 53.7234 19.5834 53.7234C22.624 53.7234 26.5802 53.6765 29.7802 52.0953C31.2959 51.3453 32.5927 50.2671 33.5396 48.6671C34.4959 47.0515 35.2084 44.6984 35.2084 41.2234V37.8296L30.5209 42.5171L26.1021 38.0984L38.3334 25.8671L50.5646 38.0984L46.1459 42.5171L41.4584 37.8296V41.2234C41.4584 45.5578 40.5646 49.0671 38.9209 51.8484C37.4191 54.3842 35.2011 56.4195 32.5459 57.6984C27.9396 59.9734 22.6427 59.9734 19.7584 59.9734H19.5834C15.9334 59.9734 11.3396 58.5609 7.61462 55.5765C3.78025 52.514 0.833374 47.7421 0.833374 41.2234C0.833374 34.7484 3.65525 29.9734 7.45837 26.8828C10.0692 24.7828 13.1626 23.3672 16.4584 22.764V22.4734C16.4584 16.6718 18.7631 11.1078 22.8654 7.00543C26.9678 2.90307 32.5318 0.598389 38.3334 0.598389C44.135 0.598389 49.699 2.90307 53.8013 7.00543C57.9037 11.1078 60.2084 16.6718 60.2084 22.4734V22.764C63.5042 23.3672 66.5975 24.7828 69.2084 26.8828C73.0177 29.9765 75.8334 34.7484 75.8334 41.2234C75.8334 47.7109 72.999 52.5171 68.9427 55.6203C64.9865 58.6453 59.9896 59.9734 55.5209 59.9734H43.0209V53.7234H55.5209C58.8646 53.7234 62.4615 52.7078 65.1459 50.6546C67.7302 48.6796 69.5834 45.6734 69.5834 41.2234C69.5834 36.7609 67.7146 33.7234 65.2709 31.7359C62.7209 29.6671 59.5209 28.7234 57.0834 28.7234H53.9584V22.4734C53.9584 18.3294 52.3122 14.3551 49.3819 11.4248C46.4517 8.49459 42.4774 6.84839 38.3334 6.84839Z" fill="#E79423"/>
</svg>
