<svg width="45" height="73" viewBox="0 0 45 73" fill="none" xmlns="http://www.w3.org/2000/svg">
<path fill-rule="evenodd" clip-rule="evenodd" d="M12.5136 0H34.1136C34.591 0 35.0488 0.189643 35.3864 0.527208C35.724 0.864774 35.9136 1.32261 35.9136 1.8V2.7H37.8V0H45V12.6H37.8V9.9H35.9136V10.8C35.9136 11.2774 35.724 11.7352 35.3864 12.0728C35.0488 12.4104 34.591 12.6 34.1136 12.6H29.3148V29.2554L31.4568 31.3974V67.1148C31.4568 68.547 30.8879 69.9205 29.8752 70.9332C28.8625 71.9459 27.489 72.5148 26.0568 72.5148H22.5432C21.111 72.5148 19.7375 71.9459 18.7248 70.9332C17.7121 69.9205 17.1432 68.547 17.1432 67.1148V31.3974L19.2852 29.2554V12.6H16.1136C15.1588 12.6 14.2431 12.2207 13.568 11.5456C12.8929 10.8705 12.5136 9.95478 12.5136 9V3.6C10.1417 3.62277 7.87461 4.58103 6.20542 6.26639C4.53623 7.95176 3.59989 10.2279 3.6 12.6H3.48724e-09C-7.82115e-05 9.27319 1.31555 6.08135 3.65985 3.72086C6.00416 1.36037 9.18687 0.0228124 12.5136 0ZM32.3136 3.6H16.1136V9H32.3136V3.6ZM22.8852 12.6H25.7148V30.744L27.8568 32.8878V67.1148C27.8568 67.5922 27.6672 68.05 27.3296 68.3876C26.992 68.7252 26.5342 68.9148 26.0568 68.9148H22.5432C22.0658 68.9148 21.608 68.7252 21.2704 68.3876C20.9328 68.05 20.7432 67.5922 20.7432 67.1148V32.886L22.8852 30.744V12.6Z" fill="#E79423"/>
</svg>
