<svg width="61" height="54" viewBox="0 0 61 54" fill="none" xmlns="http://www.w3.org/2000/svg">
<mask id="path-1-inside-1_19_1104" fill="white">
<path d="M29.9 53.6649V50.3315H51.95C52.5056 50.3315 52.9856 50.1604 53.39 49.8182C53.7967 49.476 54 49.0271 54 48.4715V25.5115C54 19.2671 51.7045 14.0527 47.1134 9.86821C42.52 5.68154 37.0378 3.58821 30.6667 3.58821C24.2956 3.58821 18.8134 5.68043 14.22 9.86488C9.62891 14.0515 7.33335 19.2671 7.33335 25.5115V44.4349H5.66669C4.30446 44.4349 3.13002 43.9738 2.14335 43.0515C1.15891 42.1315 0.666687 40.9893 0.666687 39.6249V33.3449C0.666687 32.3493 0.99002 31.466 1.63669 30.6949C2.28558 29.9238 3.07335 29.296 4.00002 28.8115L4.05669 24.7149C4.11669 21.2371 4.87224 18.0149 6.32335 15.0482C7.77446 12.0838 9.71224 9.50266 12.1367 7.30488C14.5634 5.10932 17.3667 3.39821 20.5467 2.17154C23.7289 0.944876 27.1022 0.331543 30.6667 0.331543C34.2311 0.331543 37.6011 0.944876 40.7767 2.17154C43.9522 3.39821 46.7445 5.10599 49.1534 7.29488C51.5645 9.48599 53.4922 12.0638 54.9367 15.0282C56.3811 17.9949 57.1611 21.2171 57.2767 24.6949L57.3334 28.7115C58.2178 29.1271 58.9956 29.6849 59.6667 30.3849C60.3334 31.0871 60.6667 31.9293 60.6667 32.9115V40.1282C60.6667 41.1127 60.3322 41.9549 59.6633 42.6549C58.9967 43.3571 58.22 43.9149 57.3334 44.3282V48.4749C57.3334 49.9238 56.8089 51.1515 55.76 52.1582C54.7111 53.1649 53.4411 53.6682 51.95 53.6682L29.9 53.6649ZM21.95 32.1249C21.2611 32.1249 20.6611 31.8915 20.15 31.4249C19.6389 30.9582 19.3834 30.3804 19.3834 29.6915C19.3834 29.0027 19.6389 28.4138 20.15 27.9249C20.6611 27.436 21.2611 27.1915 21.95 27.1915C22.6389 27.1915 23.2378 27.436 23.7467 27.9249C24.2578 28.4138 24.5134 29.0027 24.5134 29.6915C24.5134 30.3804 24.2578 30.9582 23.7467 31.4249C23.2356 31.8915 22.6356 32.1249 21.9467 32.1249M39.3834 32.1249C38.6945 32.1249 38.0956 31.8915 37.5867 31.4249C37.0756 30.9582 36.82 30.3804 36.82 29.6915C36.82 29.0027 37.0756 28.4138 37.5867 27.9249C38.0978 27.436 38.6978 27.1915 39.3867 27.1915C40.0734 27.1915 40.6722 27.436 41.1834 27.9249C41.6945 28.4138 41.95 29.0027 41.95 29.6915C41.95 30.3804 41.6945 30.9582 41.1834 31.4249C40.6722 31.8915 40.0722 32.1249 39.3834 32.1249ZM13.0567 26.8315C12.7545 21.8404 14.3611 17.586 17.8767 14.0682C21.3945 10.5504 25.7134 8.79154 30.8334 8.79154C35.1378 8.79154 38.9511 10.0838 42.2734 12.6682C45.5956 15.2504 47.6245 18.6449 48.36 22.8515C43.9445 22.796 39.8467 21.6693 36.0667 19.4715C32.2889 17.276 29.3889 14.2204 27.3667 10.3049C26.5622 14.1515 24.89 17.5227 22.35 20.4182C19.81 23.3138 16.7122 25.4515 13.0567 26.8315Z"/>
</mask>
<path d="M29.9 53.6649V50.3315H51.95C52.5056 50.3315 52.9856 50.1604 53.39 49.8182C53.7967 49.476 54 49.0271 54 48.4715V25.5115C54 19.2671 51.7045 14.0527 47.1134 9.86821C42.52 5.68154 37.0378 3.58821 30.6667 3.58821C24.2956 3.58821 18.8134 5.68043 14.22 9.86488C9.62891 14.0515 7.33335 19.2671 7.33335 25.5115V44.4349H5.66669C4.30446 44.4349 3.13002 43.9738 2.14335 43.0515C1.15891 42.1315 0.666687 40.9893 0.666687 39.6249V33.3449C0.666687 32.3493 0.99002 31.466 1.63669 30.6949C2.28558 29.9238 3.07335 29.296 4.00002 28.8115L4.05669 24.7149C4.11669 21.2371 4.87224 18.0149 6.32335 15.0482C7.77446 12.0838 9.71224 9.50266 12.1367 7.30488C14.5634 5.10932 17.3667 3.39821 20.5467 2.17154C23.7289 0.944876 27.1022 0.331543 30.6667 0.331543C34.2311 0.331543 37.6011 0.944876 40.7767 2.17154C43.9522 3.39821 46.7445 5.10599 49.1534 7.29488C51.5645 9.48599 53.4922 12.0638 54.9367 15.0282C56.3811 17.9949 57.1611 21.2171 57.2767 24.6949L57.3334 28.7115C58.2178 29.1271 58.9956 29.6849 59.6667 30.3849C60.3334 31.0871 60.6667 31.9293 60.6667 32.9115V40.1282C60.6667 41.1127 60.3322 41.9549 59.6633 42.6549C58.9967 43.3571 58.22 43.9149 57.3334 44.3282V48.4749C57.3334 49.9238 56.8089 51.1515 55.76 52.1582C54.7111 53.1649 53.4411 53.6682 51.95 53.6682L29.9 53.6649ZM21.95 32.1249C21.2611 32.1249 20.6611 31.8915 20.15 31.4249C19.6389 30.9582 19.3834 30.3804 19.3834 29.6915C19.3834 29.0027 19.6389 28.4138 20.15 27.9249C20.6611 27.436 21.2611 27.1915 21.95 27.1915C22.6389 27.1915 23.2378 27.436 23.7467 27.9249C24.2578 28.4138 24.5134 29.0027 24.5134 29.6915C24.5134 30.3804 24.2578 30.9582 23.7467 31.4249C23.2356 31.8915 22.6356 32.1249 21.9467 32.1249M39.3834 32.1249C38.6945 32.1249 38.0956 31.8915 37.5867 31.4249C37.0756 30.9582 36.82 30.3804 36.82 29.6915C36.82 29.0027 37.0756 28.4138 37.5867 27.9249C38.0978 27.436 38.6978 27.1915 39.3867 27.1915C40.0734 27.1915 40.6722 27.436 41.1834 27.9249C41.6945 28.4138 41.95 29.0027 41.95 29.6915C41.95 30.3804 41.6945 30.9582 41.1834 31.4249C40.6722 31.8915 40.0722 32.1249 39.3834 32.1249ZM13.0567 26.8315C12.7545 21.8404 14.3611 17.586 17.8767 14.0682C21.3945 10.5504 25.7134 8.79154 30.8334 8.79154C35.1378 8.79154 38.9511 10.0838 42.2734 12.6682C45.5956 15.2504 47.6245 18.6449 48.36 22.8515C43.9445 22.796 39.8467 21.6693 36.0667 19.4715C32.2889 17.276 29.3889 14.2204 27.3667 10.3049C26.5622 14.1515 24.89 17.5227 22.35 20.4182C19.81 23.3138 16.7122 25.4515 13.0567 26.8315Z" fill="#E79423"/>
<path d="M29.9 53.6649H27.9V55.6646L29.8997 55.6649L29.9 53.6649ZM29.9 50.3315V48.3315H27.9V50.3315H29.9ZM53.39 49.8182L52.1023 48.288L52.0981 48.2914L53.39 49.8182ZM47.1134 9.86821L45.7661 11.3463L45.7661 11.3464L47.1134 9.86821ZM14.22 9.86488L12.8731 8.38639L12.8724 8.38707L14.22 9.86488ZM7.33335 44.4349V46.4349H9.33335V44.4349H7.33335ZM2.14335 43.0515L3.50905 41.5904L3.50893 41.5903L2.14335 43.0515ZM1.63669 30.6949L0.106405 29.4071L0.104233 29.4097L1.63669 30.6949ZM4.00002 28.8115L4.9266 30.584L5.98334 30.0315L5.99983 28.8392L4.00002 28.8115ZM4.05669 24.7149L2.05697 24.6804L2.05688 24.6872L4.05669 24.7149ZM6.32335 15.0482L4.52702 14.1689L4.52676 14.1694L6.32335 15.0482ZM12.1367 7.30488L10.7949 5.8218L10.7934 5.82309L12.1367 7.30488ZM20.5467 2.17154L19.8273 0.30539L19.8269 0.305559L20.5467 2.17154ZM49.1534 7.29488L50.4984 5.81475L50.4984 5.81469L49.1534 7.29488ZM54.9367 15.0282L56.7349 14.1527L56.7346 14.1522L54.9367 15.0282ZM57.2767 24.6949L59.2765 24.6667L59.2762 24.6476L59.2756 24.6285L57.2767 24.6949ZM57.3334 28.7115L55.3335 28.7398L55.3512 29.99L56.4829 30.5217L57.3334 28.7115ZM59.6667 30.3849L61.1172 29.0078L61.1104 29.0008L59.6667 30.3849ZM59.6633 42.6549L58.2174 41.2732L58.2129 41.2779L59.6633 42.6549ZM57.3334 44.3282L56.4883 42.5155L55.3334 43.0539V44.3282H57.3334ZM51.95 53.6682L51.9497 55.6682H51.95V53.6682ZM23.7467 27.9249L22.3611 29.3672L22.3642 29.3702L23.7467 27.9249ZM37.5867 31.4249L38.9384 29.9508L38.9352 29.9479L37.5867 31.4249ZM13.0567 26.8315L11.0603 26.9524L11.2244 29.661L13.763 28.7027L13.0567 26.8315ZM17.8767 14.0682L16.4625 12.654L16.462 12.6544L17.8767 14.0682ZM42.2734 12.6682L41.0453 14.2468L41.046 14.2473L42.2734 12.6682ZM48.36 22.8515L48.3349 24.8514L50.7453 24.8817L50.3301 22.5071L48.36 22.8515ZM36.0667 19.4715L37.072 17.7425L37.0716 17.7424L36.0667 19.4715ZM27.3667 10.3049L29.1437 9.38713L26.5611 4.38656L25.409 9.89548L27.3667 10.3049ZM31.9 53.6649V50.3315H27.9V53.6649H31.9ZM29.9 52.3315H51.95V48.3315H29.9V52.3315ZM51.95 52.3315C52.9536 52.3315 53.8977 52.0085 54.6819 51.345L52.0981 48.2914C52.0721 48.3134 52.0596 48.3177 52.0551 48.3193C52.0493 48.3214 52.0196 48.3315 51.95 48.3315V52.3315ZM54.6778 51.3485C55.5589 50.6069 56 49.5867 56 48.4715H52C52 48.501 51.9958 48.4656 52.0257 48.3997C52.0395 48.3692 52.0562 48.3421 52.0731 48.3203C52.0895 48.2989 52.1014 48.2887 52.1023 48.288L54.6778 51.3485ZM56 48.4715V25.5115H52V48.4715H56ZM56 25.5115C56 18.7079 53.47 12.9557 48.4606 8.39005L45.7661 11.3464C49.9389 15.1496 52 19.8263 52 25.5115H56ZM48.4606 8.39008C43.4888 3.85846 37.5224 1.58821 30.6667 1.58821V5.58821C36.5532 5.58821 41.5512 7.50463 45.7661 11.3463L48.4606 8.39008ZM30.6667 1.58821C23.8113 1.58821 17.845 3.85713 12.8731 8.38639L15.5669 11.3434C19.7817 7.50373 24.7799 5.58821 30.6667 5.58821V1.58821ZM12.8724 8.38707C7.86335 12.9549 5.33335 18.7079 5.33335 25.5115H9.33335C9.33335 19.8263 11.3945 15.1482 15.5676 11.3427L12.8724 8.38707ZM5.33335 25.5115V44.4349H9.33335V25.5115H5.33335ZM7.33335 42.4349H5.66669V46.4349H7.33335V42.4349ZM5.66669 42.4349C4.80668 42.4349 4.12171 42.1631 3.50905 41.5904L0.777662 44.5127C2.13833 45.7845 3.80225 46.4349 5.66669 46.4349V42.4349ZM3.50893 41.5903C2.93496 41.0539 2.66669 40.4434 2.66669 39.6249H-1.33331C-1.33331 41.5353 -0.617139 43.2092 0.777777 44.5128L3.50893 41.5903ZM2.66669 39.6249V33.3449H-1.33331V39.6249H2.66669ZM2.66669 33.3449C2.66669 32.8249 2.82089 32.3953 3.16914 31.98L0.104233 29.4097C-0.840854 30.5367 -1.33331 31.8737 -1.33331 33.3449H2.66669ZM3.16697 31.9826C3.64181 31.4183 4.22198 30.9523 4.9266 30.584L3.07344 27.0391C1.92473 27.6397 0.929343 28.4292 0.106407 29.4072L3.16697 31.9826ZM5.99983 28.8392L6.0565 24.7425L2.05688 24.6872L2.00021 28.7839L5.99983 28.8392ZM6.05639 24.7494C6.11161 21.5486 6.80438 18.6165 8.11995 15.927L4.52676 14.1694C2.9401 17.4132 2.12176 20.9256 2.05699 24.6804L6.05639 24.7494ZM8.11969 15.9275C9.46031 13.1888 11.245 10.8127 13.4799 8.78666L10.7934 5.82309C8.17949 8.19266 6.08862 10.9787 4.52702 14.1689L8.11969 15.9275ZM13.4785 8.78795C15.7156 6.76394 18.3059 5.17955 21.2665 4.03753L19.8269 0.305559C16.4275 1.61687 13.4111 3.4547 10.7949 5.82181L13.4785 8.78795ZM21.266 4.0377C24.2085 2.90346 27.337 2.33154 30.6667 2.33154V-1.66846C26.8675 -1.66846 23.2493 -1.01371 19.8273 0.30539L21.266 4.0377ZM30.6667 2.33154C33.9964 2.33154 37.1211 2.90347 40.056 4.03719L41.4974 0.305897C38.0812 -1.01371 34.4658 -1.66846 30.6667 -1.66846V2.33154ZM40.056 4.03719C43.0122 5.17911 45.5903 6.75962 47.8083 8.77507L50.4984 5.81469C47.8986 3.45236 44.8923 1.61731 41.4974 0.305897L40.056 4.03719ZM47.8083 8.775C50.0291 10.7932 51.8042 13.1653 53.1388 15.9043L56.7346 14.1522C55.1803 10.9623 53.0998 8.17876 50.4984 5.81475L47.8083 8.775ZM53.1385 15.9037C54.4533 18.6041 55.171 21.5487 55.2778 24.7613L59.2756 24.6285C59.1512 20.8855 58.309 17.3857 56.7349 14.1527L53.1385 15.9037ZM55.2769 24.7231L55.3335 28.7398L59.3332 28.6833L59.2765 24.6667L55.2769 24.7231ZM56.4829 30.5217C57.1468 30.8337 57.7231 31.2476 58.223 31.769L61.1104 29.0008C60.268 28.1222 59.2887 27.4205 58.1838 26.9014L56.4829 30.5217ZM58.2162 31.7619C58.5244 32.0865 58.6667 32.4336 58.6667 32.9115H62.6667C62.6667 31.4251 62.1423 30.0877 61.1171 29.0079L58.2162 31.7619ZM58.6667 32.9115V40.1282H62.6667V32.9115H58.6667ZM58.6667 40.1282C58.6667 40.6076 58.5241 40.9522 58.2174 41.2732L61.1093 44.0366C62.1404 42.9576 62.6667 41.6177 62.6667 40.1282H58.6667ZM58.2129 41.2779C57.7207 41.7963 57.1501 42.207 56.4883 42.5155L58.1784 46.1409C59.29 45.6227 60.2726 44.9179 61.1138 44.0319L58.2129 41.2779ZM55.3334 44.3282V48.4749H59.3334V44.3282H55.3334ZM55.3334 48.4749C55.3334 49.377 55.0326 50.0843 54.3751 50.7153L57.1449 53.6012C58.5852 52.2188 59.3334 50.4705 59.3334 48.4749H55.3334ZM54.3751 50.7153C53.7092 51.3544 52.9397 51.6682 51.95 51.6682V55.6682C53.9426 55.6682 55.7131 54.9754 57.1449 53.6012L54.3751 50.7153ZM51.9503 51.6682L29.9003 51.6649L29.8997 55.6649L51.9497 55.6682L51.9503 51.6682ZM21.95 30.1249C21.7627 30.1249 21.6431 30.0798 21.4986 29.9479L18.8015 32.9018C19.6792 33.7032 20.7595 34.1249 21.95 34.1249V30.1249ZM21.4986 29.9479C21.428 29.8835 21.4094 29.8445 21.4041 29.8325C21.3989 29.8207 21.3834 29.7828 21.3834 29.6915H17.3834C17.3834 30.9454 17.8776 32.0583 18.8015 32.9018L21.4986 29.9479ZM21.3834 29.6915C21.3834 29.5647 21.4039 29.4931 21.5325 29.3702L18.7676 26.4796C17.8739 27.3344 17.3834 28.4406 17.3834 29.6915H21.3834ZM21.5325 29.3702C21.6824 29.2267 21.7913 29.1915 21.95 29.1915V25.1915C20.731 25.1915 19.6398 25.6453 18.7676 26.4796L21.5325 29.3702ZM21.95 29.1915C22.1085 29.1915 22.2146 29.2264 22.3611 29.3671L25.1323 26.4826C24.261 25.6456 23.1693 25.1915 21.95 25.1915V29.1915ZM22.3642 29.3702C22.4928 29.4931 22.5134 29.5647 22.5134 29.6915H26.5134C26.5134 28.4406 26.0228 27.3344 25.1291 26.4796L22.3642 29.3702ZM22.5134 29.6915C22.5134 29.7828 22.4978 29.8207 22.4926 29.8325C22.4873 29.8445 22.4687 29.8835 22.3981 29.9479L25.0952 32.9018C26.0191 32.0583 26.5134 30.9454 26.5134 29.6915H22.5134ZM22.3981 29.9479C22.2536 30.0798 22.134 30.1249 21.9467 30.1249V34.1249C23.1372 34.1249 24.2175 33.7032 25.0952 32.9018L22.3981 29.9479ZM39.3834 30.1249C39.1963 30.1249 39.0794 30.0801 38.9384 29.9508L36.2349 32.8989C37.1118 33.703 38.1927 34.1249 39.3834 34.1249V30.1249ZM38.9352 29.9479C38.8647 29.8835 38.8461 29.8445 38.8408 29.8325C38.8355 29.8207 38.82 29.7828 38.82 29.6915H34.82C34.82 30.9454 35.3142 32.0583 36.2381 32.9018L38.9352 29.9479ZM38.82 29.6915C38.82 29.5647 38.8406 29.4931 38.9691 29.3702L36.2042 26.4796C35.3106 27.3344 34.82 28.4406 34.82 29.6915H38.82ZM38.9691 29.3702C39.1191 29.2267 39.2279 29.1915 39.3867 29.1915V25.1915C38.1677 25.1915 37.0765 25.6453 36.2042 26.4796L38.9691 29.3702ZM39.3867 29.1915C39.5414 29.1915 39.6496 29.2254 39.8009 29.3702L42.5658 26.4796C41.6949 25.6466 40.6053 25.1915 39.3867 25.1915V29.1915ZM39.8009 29.3702C39.9294 29.4931 39.95 29.5647 39.95 29.6915H43.95C43.95 28.4406 43.4595 27.3344 42.5658 26.4796L39.8009 29.3702ZM39.95 29.6915C39.95 29.7828 39.9345 29.8207 39.9293 29.8325C39.924 29.8445 39.9053 29.8835 39.8348 29.9479L42.5319 32.9018C43.4558 32.0583 43.95 30.9454 43.95 29.6915H39.95ZM39.8348 29.9479C39.6903 30.0798 39.5706 30.1249 39.3834 30.1249V34.1249C40.5738 34.1249 41.6542 33.7032 42.5319 32.9018L39.8348 29.9479ZM15.053 26.7107C14.7852 22.2872 16.1828 18.5925 19.2913 15.482L16.462 12.6544C12.5394 16.5795 10.7237 21.3937 11.0603 26.9524L15.053 26.7107ZM19.2909 15.4824C22.4215 12.3518 26.2265 10.7915 30.8334 10.7915V6.79154C25.2002 6.79154 20.3674 8.74908 16.4625 12.654L19.2909 15.4824ZM30.8334 10.7915C34.7039 10.7915 38.0827 11.9421 41.0453 14.2468L43.5014 11.0896C39.8196 8.22544 35.5717 6.79154 30.8334 6.79154V10.7915ZM41.046 14.2473C43.9694 16.5196 45.7385 19.4708 46.3899 23.196L50.3301 22.5071C49.5104 17.8189 47.2217 13.9813 43.5007 11.0891L41.046 14.2473ZM48.3852 20.8517C44.3106 20.8004 40.551 19.7653 37.072 17.7425L35.0614 21.2005C39.1424 23.5733 43.5783 24.7915 48.3349 24.8514L48.3852 20.8517ZM37.0716 17.7424C33.6262 15.74 30.9927 12.9673 29.1437 9.38713L25.5897 11.2226C27.7851 15.4736 30.9516 18.812 35.0617 21.2007L37.0716 17.7424ZM25.409 9.89548C24.6736 13.4121 23.1546 16.4682 20.8465 19.0993L23.8535 21.7371C26.6255 18.5771 28.4509 14.891 29.3243 10.7143L25.409 9.89548ZM20.8465 19.0993C18.5261 21.7445 15.7035 23.6946 12.3503 24.9604L13.763 28.7027C17.721 27.2085 21.0939 24.883 23.8535 21.7371L20.8465 19.0993Z" fill="#E79423" mask="url(#path-1-inside-1_19_1104)"/>
</svg>
