<svg width="79" height="55" viewBox="0 0 79 55" fill="none" xmlns="http://www.w3.org/2000/svg">
<path d="M76.3825 36.8243C74.7659 31.9743 65.4894 15.7886 61.8904 10.2265C58.2529 4.24107 54.0381 1.75836 47.7447 1.87383C32.9505 2.04913 18.1755 2.99345 3.47932 4.70297C3.16386 4.75529 2.86846 4.89207 2.62448 5.09877C2.38051 5.30547 2.19706 5.57439 2.09362 5.87697C2.01872 6.09545 1.98826 6.3267 2.00405 6.55713C2.01984 6.78756 2.08156 7.0125 2.18556 7.21872C2.28957 7.42494 2.43377 7.60828 2.60968 7.75795C2.78559 7.90762 2.98966 8.0206 3.20988 8.09024C5.84656 8.2442 15.4887 8.62912 19.9345 9.03328C21.4752 9.16722 22.9499 9.72053 24.1984 10.6332C25.447 11.5458 26.4217 12.783 27.017 14.2104C28.9416 17.8479 33.3104 28.9142 34.9655 33.1675C35.4604 34.2036 35.73 35.3327 35.7565 36.4806C35.7831 37.6284 35.5659 38.7688 35.1195 39.8266C34.3855 40.7207 33.4051 41.3797 32.3001 41.7218C31.195 42.064 30.0139 42.0742 28.9031 41.7512C25.9969 41.2315 7.54019 37.2284 5.71184 36.8243C3.40234 36.2854 2.63251 40.6734 5.11522 41.4625C8.4255 42.7327 24.1108 48.0638 36.7361 51.4896C41.6009 52.8563 46.7483 52.8563 51.6131 51.4896C57.6756 50.3156 66.1245 48.5835 71.2439 47.1785C71.637 47.0763 72.0228 46.9477 72.3986 46.7936C73.3155 46.4015 74.1461 45.8324 74.8428 45.1188C75.5395 44.4053 76.0885 43.5614 76.4586 42.6353C76.8286 41.7093 77.0124 40.7194 76.9994 39.7222C76.9863 38.7251 76.7767 37.7403 76.3825 36.8243ZM48.9187 46.6396C47.8723 46.6626 46.8597 46.2689 46.1035 45.5453C45.3474 44.8216 44.9097 43.8272 44.8867 42.7808C44.8637 41.7345 45.2574 40.7218 45.9811 39.9657C46.7047 39.2095 47.6991 38.7718 48.7455 38.7488C49.7919 38.7361 50.8005 39.1395 51.5494 39.8704C52.2983 40.6013 52.7263 41.5997 52.739 42.6461C52.7518 43.6925 52.3483 44.7011 51.6175 45.45C50.8866 46.199 49.8881 46.6269 48.8417 46.6396H48.9187ZM63.1991 29.4916C60.4855 30.1844 50.9973 31.5701 47.1866 31.9936C43.0103 32.5902 40.6623 31.8011 39.3151 28.741C38.1988 26.8164 33.5413 14.9417 32.8485 13.2096C31.4435 9.55292 33.2719 8.4944 35.4851 8.28269C37.3135 8.05174 45.9741 7.3204 49.0919 7.05096C53.7879 6.68529 56.2129 8.4944 58.5609 12.5745C61.2168 17.0395 63.6033 21.1774 65.6433 24.8341C66.7981 26.9127 65.8935 28.818 63.1991 29.5108V29.4916ZM69.531 42.2131C68.822 42.2167 68.128 42.0084 67.538 41.6151C66.9481 41.2218 66.489 40.6613 66.2196 40.0054C65.9502 39.3495 65.8827 38.6281 66.0259 37.9337C66.1691 37.2392 66.5164 36.6033 67.0232 36.1075C67.5301 35.6117 68.1735 35.2785 68.8709 35.1506C69.5683 35.0227 70.288 35.1059 70.9379 35.3897C71.5877 35.6734 72.138 36.1447 72.5182 36.7432C72.8985 37.3417 73.0914 38.04 73.0722 38.7488C73.0571 39.678 72.6773 40.564 72.0148 41.2156C71.3524 41.8673 70.4603 42.2325 69.531 42.2323V42.2131Z" stroke="#E79423" stroke-width="3" stroke-linecap="round" stroke-linejoin="round"/>
</svg>
