<svg width="55" height="45" viewBox="0 0 55 45" fill="none" xmlns="http://www.w3.org/2000/svg">
<path d="M48.08 0.536133H6.91998C5.08469 0.536133 3.32456 1.2652 2.02682 2.56295C0.729067 3.8607 0 5.62082 0 7.45611V37.5442C0 39.3795 0.729067 41.1396 2.02682 42.4373C3.32456 43.7351 5.08469 44.4642 6.91998 44.4642H48.08C49.9153 44.4642 51.6754 43.7351 52.9732 42.4373C54.2709 41.1396 55 39.3795 55 37.5442V7.45611C55 5.62082 54.2709 3.8607 52.9732 2.56295C51.6754 1.2652 49.9153 0.536133 48.08 0.536133ZM6.91998 3.30412H48.08C49.1277 3.3011 50.1373 3.69721 50.9034 4.4119C51.6695 5.1266 52.1347 6.10623 52.2043 7.15163C45.3674 10.8054 38.5028 14.4315 31.6381 18.0852C30.7094 18.6672 29.7269 19.1585 28.7041 19.5522C27.9011 19.7107 27.0736 19.6964 26.2766 19.5103C25.4795 19.3241 24.7313 18.9704 24.0815 18.4727C20.151 16.3967 16.2204 14.2931 12.3176 12.2171C9.16205 10.5563 5.95118 8.86779 2.79567 7.17931C2.85987 6.12946 3.32249 5.14373 4.08902 4.42349C4.85556 3.70326 5.86817 3.30287 6.91998 3.30412ZM52.232 37.5442C52.232 38.6454 51.7946 39.7014 51.0159 40.4801C50.2373 41.2587 49.1812 41.6962 48.08 41.6962H6.91998C5.8188 41.6962 4.76273 41.2587 3.98408 40.4801C3.20543 39.7014 2.76799 38.6454 2.76799 37.5442V10.321C9.30045 13.7533 15.8052 17.241 22.3377 20.701C23.5048 21.4165 24.7613 21.9749 26.0745 22.3617C27.9965 22.6742 29.9664 22.2704 31.6105 21.2269C35.6241 19.1232 39.61 16.9918 43.6236 14.8882C46.5023 13.3381 49.3533 11.8434 52.232 10.321V37.5442Z" fill="#E79423"/>
</svg>
