<svg width="63" height="62" viewBox="0 0 63 62" fill="none" xmlns="http://www.w3.org/2000/svg">
<path d="M48.0542 21.5465L53.7917 29L60.7917 13.8125M25.9792 24.75C27.4155 24.75 28.8378 24.4671 30.1648 23.9174C31.4918 23.3678 32.6975 22.5621 33.7132 21.5465C34.7288 20.5308 35.5345 19.3251 36.0841 17.9981C36.6338 16.6711 36.9167 15.2488 36.9167 13.8125C36.9167 12.3762 36.6338 10.9539 36.0841 9.6269C35.5345 8.2999 34.7288 7.09416 33.7132 6.07852C32.6975 5.06288 31.4918 4.25723 30.1648 3.70757C28.8378 3.15791 27.4155 2.875 25.9792 2.875C23.0784 2.875 20.2964 4.02734 18.2452 6.07852C16.194 8.1297 15.0417 10.9117 15.0417 13.8125C15.0417 16.7133 16.194 19.4953 18.2452 21.5465C20.2964 23.5977 23.0784 24.75 25.9792 24.75ZM2.54169 57.25V59.125H49.4167V57.25C49.4167 50.25 49.4167 46.75 48.0542 44.075C46.8558 41.7231 44.9436 39.8109 42.5917 38.6125C39.9167 37.25 36.4167 37.25 29.4167 37.25H22.5417C15.5417 37.25 12.0417 37.25 9.36669 38.6125C7.01477 39.8109 5.10259 41.7231 3.90419 44.075C2.54169 46.75 2.54169 50.25 2.54169 57.25Z" stroke="#E79423" stroke-width="4" stroke-linecap="round" stroke-linejoin="round"/>
</svg>
