<svg width="90" height="72" viewBox="0 0 90 72" fill="none" xmlns="http://www.w3.org/2000/svg">
<path d="M20.2802 70.9633C20.2999 70.9764 20.3263 70.9699 20.346 70.983C20.5015 71.0695 20.6754 71.1176 20.8531 71.1235C20.9511 71.1233 21.0485 71.11 21.1429 71.084L45.0006 64.573L68.8582 71.084C68.9526 71.11 69.0501 71.1233 69.148 71.1235C69.3254 71.1182 69.4989 71.0692 69.6529 70.9808C69.6748 70.9699 69.699 70.9742 69.7187 70.9611L89.4757 58.8874C89.6798 58.762 89.8374 58.5735 89.9246 58.3504C90.0117 58.1274 90.0237 57.882 89.9587 57.6515L79.0177 19.2351C78.9729 19.0751 78.8923 18.9274 78.7821 18.8031C78.6718 18.6789 78.5347 18.5813 78.3811 18.5179C78.2276 18.4544 78.0616 18.4267 77.8958 18.4369C77.7299 18.4471 77.5686 18.4948 77.424 18.5765L66.5313 24.688C66.2927 24.8386 66.1212 25.0752 66.0521 25.3487C65.983 25.6222 66.0217 25.9118 66.1601 26.1576C66.2985 26.4035 66.5261 26.5867 66.7958 26.6694C67.0655 26.7522 67.3567 26.7282 67.6091 26.6023L77.2878 21.1691L87.6208 57.4473L70.0261 68.2017L65.8464 34.7663C65.8103 34.4772 65.6608 34.2143 65.4309 34.0355C65.201 33.8566 64.9094 33.7764 64.6203 33.8125C64.3313 33.8486 64.0684 33.998 63.8895 34.2279C63.7106 34.4579 63.6304 34.7494 63.6665 35.0385L67.8528 68.5354L46.0982 62.5973V56.6043C46.0982 56.3132 45.9825 56.034 45.7767 55.8282C45.5708 55.6224 45.2917 55.5067 45.0006 55.5067C44.7095 55.5067 44.4303 55.6224 44.2244 55.8282C44.0186 56.034 43.903 56.3132 43.903 56.6043V62.5973L22.1461 68.5354L26.3324 35.0385C26.3503 34.8954 26.3398 34.7501 26.3015 34.611C26.2633 34.472 26.198 34.3418 26.1094 34.2279C26.0208 34.1141 25.9107 34.0188 25.7853 33.9475C25.6599 33.8762 25.5217 33.8303 25.3786 33.8125C25.2355 33.7946 25.0902 33.8051 24.9511 33.8434C24.8121 33.8816 24.6819 33.9469 24.568 34.0355C24.4542 34.124 24.3589 34.2342 24.2876 34.3596C24.2163 34.485 24.1704 34.6232 24.1526 34.7663L19.9751 68.2017L2.38037 57.4495L12.7133 21.1735L22.392 26.6067C22.6445 26.7325 22.9357 26.7566 23.2054 26.6738C23.4751 26.5911 23.7026 26.4078 23.8411 26.162C23.9795 25.9162 24.0181 25.6266 23.949 25.3531C23.8799 25.0795 23.7084 24.843 23.4698 24.6924L12.575 18.5787C12.4307 18.4961 12.2693 18.4476 12.1034 18.437C11.9375 18.4264 11.7713 18.454 11.6176 18.5175C11.464 18.5811 11.3269 18.6791 11.217 18.8038C11.1071 18.9286 11.0272 19.0769 10.9834 19.2373L0.0424595 57.6537C-0.0237142 57.8841 -0.0122873 58.1299 0.0749803 58.3533C0.162248 58.5766 0.320515 58.765 0.525408 58.8896L20.2802 70.9633Z" fill="#E79423"/>
<path d="M44.2564 52.1744C44.4579 52.3604 44.7217 52.4642 44.996 52.4654C45.2702 52.4667 45.535 52.3652 45.7381 52.1809C46.4692 51.5158 63.6599 35.7409 63.6599 19.5358C63.6599 9.07122 55.4652 0.876465 45.0006 0.876465C34.5359 0.876465 26.3412 9.07122 26.3412 19.5358C26.3412 35.46 43.5254 51.4982 44.2564 52.1744ZM45.0006 3.07168C54.3851 3.07168 61.4647 10.1491 61.4647 19.5358C61.4647 32.9201 48.3087 46.6183 45.0071 49.8452C41.7121 46.5809 28.5364 32.7028 28.5364 19.5358C28.5364 10.1491 35.616 3.07168 45.0006 3.07168Z" fill="#E79423"/>
<path d="M54.879 19.5358C54.879 14.0895 50.4469 9.65735 45.0006 9.65735C39.5542 9.65735 35.1221 14.0895 35.1221 19.5358C35.1221 24.9822 39.5542 29.4143 45.0006 29.4143C50.4469 29.4143 54.879 24.9822 54.879 19.5358ZM45.0006 27.2191C40.7638 27.2191 37.3173 23.7726 37.3173 19.5358C37.3173 15.2991 40.7638 11.8526 45.0006 11.8526C49.2373 11.8526 52.6838 15.2991 52.6838 19.5358C52.6838 23.7726 49.2373 27.2191 45.0006 27.2191Z" fill="#E79423"/>
</svg>
