<svg width="63" height="69" viewBox="0 0 63 69" fill="none" xmlns="http://www.w3.org/2000/svg">
<path fill-rule="evenodd" clip-rule="evenodd" d="M37.4145 5.2861H21.9145C21.423 7.68761 20.2369 9.89186 18.5036 11.6252C16.7703 13.3585 14.566 14.5446 12.1645 15.0361C12.1635 15.7583 12.1635 16.4805 12.1645 17.2028C14.566 17.6943 16.7703 18.8804 18.5036 20.6137C20.2369 22.347 21.423 24.5513 21.9145 26.9528H37.4145C37.906 24.5513 39.0921 22.347 40.8254 20.6137C42.5587 18.8804 44.763 17.6943 47.1645 17.2028C47.1652 16.4805 47.1652 15.7583 47.1645 15.0361C44.763 14.5446 42.5587 13.3585 40.8254 11.6252C39.0921 9.89186 37.906 7.68761 37.4145 5.2861ZM39.4312 0.296104C38.5145 0.286104 37.5412 0.286104 36.5045 0.286104H22.8245C21.7912 0.286104 20.8145 0.286104 19.9012 0.296104C19.7191 0.279706 19.5358 0.283058 19.3545 0.306104C17.8478 0.33277 16.5112 0.396103 15.3512 0.55277C13.2578 0.83277 11.3678 1.45277 9.85117 2.96944C8.33117 4.48944 7.71117 6.37944 7.43117 8.46944C7.2745 9.63277 7.21117 10.9694 7.1845 12.4761C7.16167 12.6563 7.15832 12.8385 7.1745 13.0194C7.1645 13.9361 7.1645 14.9128 7.1645 15.9461V16.2928C7.1645 17.3261 7.1645 18.3028 7.1745 19.2194C7.15835 19.4004 7.1617 19.5825 7.1845 19.7628C7.21117 21.2728 7.2745 22.6061 7.43117 23.7661C7.71117 25.8594 8.33117 27.7494 9.85117 29.2661C11.3678 30.7861 13.2578 31.4061 15.3512 31.6861C16.5112 31.8428 17.8478 31.9061 19.3545 31.9328C19.5358 31.9562 19.7191 31.9595 19.9012 31.9428C20.8145 31.9528 21.7912 31.9528 22.8245 31.9528H36.5045C37.5378 31.9528 38.5145 31.9528 39.4312 31.9428C39.6121 31.9593 39.7943 31.9559 39.9745 31.9328C41.4845 31.9061 42.8212 31.8428 43.9778 31.6861C46.0712 31.4061 47.9612 30.7861 49.4778 29.2661C50.9978 27.7494 51.6178 25.8594 51.8978 23.7661C52.0558 22.4374 52.1381 21.1008 52.1445 19.7628C52.1671 19.5825 52.1705 19.4004 52.1545 19.2194C52.1645 18.3028 52.1645 17.3261 52.1645 16.2928V15.9461C52.1645 14.9128 52.1645 13.9361 52.1545 13.0194C52.171 12.8385 52.1677 12.6563 52.1445 12.4761C52.1376 11.1381 52.0552 9.80152 51.8978 8.47277C51.6178 6.37944 50.9978 4.48944 49.4812 2.97277C47.9612 1.45277 46.0712 0.83277 43.9812 0.55277C42.6513 0.395184 41.3136 0.312831 39.9745 0.306104C39.7943 0.283195 39.6121 0.279842 39.4312 0.296104ZM42.6445 5.43277C43.0219 6.43002 43.607 7.33565 44.361 8.08962C45.115 8.8436 46.0206 9.42869 47.0178 9.8061C46.9968 9.58338 46.9713 9.36111 46.9412 9.13944C46.7378 7.59944 46.3778 6.93944 45.9412 6.5061C45.5078 6.07277 44.8512 5.7161 43.3145 5.5061C43.0928 5.47715 42.8705 5.4527 42.6478 5.43277M47.0212 22.4328C46.0239 22.8102 45.1183 23.3953 44.3643 24.1493C43.6103 24.9032 43.0253 25.8089 42.6478 26.8061C42.8812 26.7861 43.1045 26.7594 43.3145 26.7328C44.8545 26.5228 45.5145 26.1661 45.9478 25.7328C46.3812 25.2994 46.7412 24.6394 46.9478 23.0994C46.9745 22.8894 47.0012 22.6661 47.0212 22.4328ZM16.6878 26.8061C16.3104 25.8089 15.7253 24.9032 14.9714 24.1493C14.2174 23.3953 13.3118 22.8102 12.3145 22.4328C12.3378 22.6661 12.3612 22.8894 12.3912 23.0994C12.5978 24.6394 12.9545 25.2994 13.3912 25.7328C13.8245 26.1661 14.4812 26.5228 16.0178 26.7328C16.2312 26.7594 16.4545 26.7861 16.6878 26.8061ZM12.3145 9.8061C13.3118 9.42869 14.2174 8.8436 14.9714 8.08962C15.7253 7.33565 16.3104 6.43002 16.6878 5.43277C16.4545 5.45277 16.2312 5.47944 16.0212 5.50944C14.4812 5.7161 13.8212 6.07277 13.3878 6.50944C12.9545 6.94277 12.5978 7.59944 12.3878 9.1361L12.3145 9.8061ZM29.6645 15.2861C29.4435 15.2861 29.2315 15.3739 29.0752 15.5302C28.919 15.6865 28.8312 15.8984 28.8312 16.1194C28.8312 16.3405 28.919 16.5524 29.0752 16.7087C29.2315 16.865 29.4435 16.9528 29.6645 16.9528C29.8855 16.9528 30.0975 16.865 30.2538 16.7087C30.41 16.5524 30.4978 16.3405 30.4978 16.1194C30.4978 15.8984 30.41 15.6865 30.2538 15.5302C30.0975 15.3739 29.8855 15.2861 29.6645 15.2861ZM23.8312 16.1194C23.8312 14.5723 24.4457 13.0886 25.5397 11.9946C26.6337 10.9007 28.1174 10.2861 29.6645 10.2861C31.2116 10.2861 32.6953 10.9007 33.7893 11.9946C34.8833 13.0886 35.4978 14.5723 35.4978 16.1194C35.4978 17.6665 34.8833 19.1503 33.7893 20.2442C32.6953 21.3382 31.2116 21.9528 29.6645 21.9528C28.1174 21.9528 26.6337 21.3382 25.5397 20.2442C24.4457 19.1503 23.8312 17.6665 23.8312 16.1194ZM18.6112 40.9461C24.8312 39.7428 31.4878 40.0128 36.8778 43.2261C37.6312 43.6761 38.3445 44.2394 38.9612 44.9328C40.2145 46.3428 40.8612 48.0894 40.8912 49.8428C41.5278 49.4328 42.1678 48.9761 42.8145 48.4861L48.8412 43.9361C50.3504 42.8265 52.1746 42.2281 54.0478 42.2281C55.9211 42.2281 57.7453 42.8265 59.2545 43.9361C62.0378 46.0361 63.1512 49.8128 61.1545 53.0128C59.7378 55.2828 57.6045 58.4261 55.4312 60.4394C53.2312 62.4728 50.1078 64.1861 47.7445 65.3261C44.8712 66.7128 41.7712 67.4794 38.7545 67.9661C32.5878 68.9661 26.1745 68.8128 20.0812 67.5561C16.9389 66.9094 13.7393 66.5822 10.5312 66.5794H2.99784C2.3348 66.5794 1.69891 66.316 1.23007 65.8472C0.761229 65.3784 0.497837 64.7425 0.497837 64.0794C0.497837 63.4164 0.761229 62.7805 1.23007 62.3117C1.69891 61.8428 2.3348 61.5794 2.99784 61.5794H10.5312C14.0712 61.5794 17.6478 61.9494 21.0912 62.6594C26.6451 63.7991 32.3593 63.9244 37.9578 63.0294C40.7178 62.5828 43.2978 61.9194 45.5712 60.8228C47.8478 59.7228 50.4078 58.2761 52.0312 56.7728C53.6745 55.2494 55.5112 52.6128 56.9145 50.3661C57.3378 49.6861 57.2778 48.7094 56.2412 47.9261C55.0078 46.9928 53.0845 46.9928 51.8545 47.9261L45.8312 52.4761C43.4245 54.2928 40.4645 56.2361 36.7945 56.8228C36.41 56.8837 36.0244 56.937 35.6378 56.9828C33.3023 57.2522 30.9448 57.2746 28.6045 57.0494C28.2718 57.0265 27.9471 56.9371 27.6495 56.7868C27.3519 56.6364 27.0873 56.428 26.8714 56.1739C26.6556 55.9197 26.4927 55.6249 26.3925 55.3069C26.2922 54.9889 26.2566 54.654 26.2878 54.322C26.3189 53.99 26.4161 53.6676 26.5738 53.3737C26.7314 53.0798 26.9462 52.8205 27.2055 52.6109C27.4649 52.4013 27.7636 52.2457 28.084 52.1533C28.4044 52.0609 28.74 52.0335 29.0712 52.0728C30.9203 52.2524 32.7827 52.249 34.6312 52.0628L34.7312 52.0528C35.0422 51.8598 35.3065 51.6001 35.505 51.2926C35.7035 50.9851 35.8313 50.6373 35.8791 50.2745C35.9269 49.9116 35.8936 49.5426 35.7816 49.1941C35.6695 48.8457 35.4815 48.5264 35.2312 48.2594C34.9656 47.967 34.6564 47.7174 34.3145 47.5194C30.3778 45.1694 25.1178 44.7794 19.5612 45.8528C14.1337 46.9447 8.98841 49.14 4.4445 52.3028C4.17661 52.4928 3.87391 52.6281 3.55371 52.7011C3.2335 52.7741 2.90205 52.7833 2.57829 52.7282C2.25452 52.6731 1.94478 52.5548 1.66674 52.38C1.3887 52.2052 1.14782 51.9773 0.957837 51.7094C0.767858 51.4415 0.632506 51.1389 0.559507 50.8186C0.486509 50.4984 0.477295 50.167 0.532391 49.8432C0.587487 49.5195 0.705815 49.2097 0.880618 48.9317C1.05542 48.6536 1.28327 48.4128 1.55117 48.2228C6.67666 44.6494 12.4844 42.1721 18.6112 40.9461Z" fill="#E79423"/>
</svg>
