<svg width="54" height="53" viewBox="0 0 54 53" fill="none" xmlns="http://www.w3.org/2000/svg">
<path d="M37.0004 33.5059C30.3479 40.5057 13.3789 23.6895 20.0565 16.662C24.1341 12.3704 19.5287 7.46779 16.9788 3.85956C12.1928 -2.90414 1.69035 6.43448 2.007 12.376C3.01531 31.1143 23.2842 53.3192 42.9114 51.3804C49.0501 50.7749 56.1054 39.6863 49.0612 35.6336C45.5419 33.6059 40.7059 29.606 37.0004 33.5031M32.5561 1.50129C37.713 1.50129 42.6586 3.54984 46.305 7.19627C49.9515 10.8427 52 15.7883 52 20.9452M32.5561 12.6121C34.7662 12.6121 36.8857 13.49 38.4485 15.0528C40.0113 16.6155 40.8892 18.7351 40.8892 20.9452" stroke="#E79423" stroke-width="3" stroke-linecap="round" stroke-linejoin="round"/>
</svg>
