<svg width="80" height="81" viewBox="0 0 80 81" fill="none" xmlns="http://www.w3.org/2000/svg">
<path d="M80 20.5148L39.7 0.514771L0 20.5148V25.5148H5V80.5148H15V35.5148H65V80.5148H75V25.5148H80V20.5148ZM20 30.5148V25.5148H30V30.5148H20ZM35 30.5148V25.5148H45V30.5148H35ZM50 30.5148V25.5148H60V30.5148H50Z" fill="#E79423"/>
<path d="M30 45.5148H25V40.5148H20V55.5148H35V40.5148H30V45.5148ZM30 65.5148H25V60.5148H20V75.5148H35V60.5148H30V65.5148ZM50 65.5148H45V60.5148H40V75.5148H55V60.5148H50V65.5148Z" fill="#E79423"/>
</svg>
