<svg width="79" height="80" viewBox="0 0 79 80" fill="none" xmlns="http://www.w3.org/2000/svg">
<path d="M77 17.9908H61.0599C60.8957 17.9908 60.733 17.9584 60.5813 17.8953C60.4296 17.8323 60.2919 17.7399 60.176 17.6235C60.0601 17.5071 59.9684 17.3689 59.906 17.2169C59.8437 17.0649 59.812 16.9022 59.8128 16.7379C59.8145 16.4356 59.9234 16.1437 60.1202 15.9142L71.4894 2.92083C71.6006 2.79319 71.7379 2.6909 71.892 2.62085C72.0461 2.55081 72.2134 2.51464 72.3827 2.51479C73.0324 2.51479 73.5602 3.04844 73.5602 3.69811V23.1476M50.2302 23.1418H36.4827V20.2125C36.4841 19.2103 36.7772 18.2302 37.3262 17.3917C37.8752 16.5533 38.6564 15.8928 39.5745 15.4908L47.2313 12.1438C48.2908 11.6825 49.1588 10.87 49.6891 9.84328C50.2194 8.81657 50.3795 7.63841 50.1424 6.50742C49.9053 5.37643 49.2855 4.36177 48.3875 3.63447C47.4895 2.90718 46.3682 2.51173 45.2126 2.51479H41.6395C40.5732 2.51596 39.5335 2.84727 38.6631 3.46318C37.7927 4.0791 37.1344 4.94941 36.7786 5.95455M42.4342 75.3763C45.4412 77.3125 49.0204 78.1612 52.5766 77.7813C56.1329 77.4014 59.452 75.8158 61.9822 73.2881L64.1864 71.0838C65.1641 70.0956 65.7125 68.7616 65.7125 67.3714C65.7125 65.9813 65.1641 64.6473 64.1864 63.659L54.9055 54.4361C53.9271 53.462 52.6027 52.9151 51.2221 52.9151C49.8415 52.9151 48.5171 53.462 47.5387 54.4361C46.5505 55.4137 45.2164 55.9621 43.8263 55.9621C42.4362 55.9621 41.1022 55.4137 40.1139 54.4361L25.3224 39.6445C24.3447 38.6563 23.7963 37.3222 23.7963 35.9321C23.7963 34.542 24.3447 33.208 25.3224 32.2197C26.2965 31.2413 26.8433 29.9169 26.8433 28.5363C26.8433 27.1557 26.2965 25.8313 25.3224 24.8529L16.3894 15.572C15.4012 14.5943 14.0672 14.0459 12.677 14.0459C11.2869 14.0459 9.95287 14.5943 8.96463 15.572L6.7604 17.7762C4.18728 20.2707 2.54748 23.5722 2.11466 27.1297C1.68185 30.6872 2.4822 34.2856 4.38214 37.3243C14.497 52.3407 27.4177 65.2615 42.4342 75.3763Z" stroke="#E79423" stroke-width="4" stroke-linecap="round" stroke-linejoin="round"/>
</svg>
