<svg width="64" height="62" viewBox="0 0 64 62" fill="none" xmlns="http://www.w3.org/2000/svg">
<path d="M26.6767 61.1933C22.9744 61.1933 19.5044 60.5022 16.2667 59.12C13.0311 57.7378 10.2033 55.8378 7.78333 53.42C5.36111 50.9978 3.45889 48.1711 2.07667 44.94C0.692222 41.7066 0 38.2389 0 34.5366C0 30.8344 0.691111 27.3644 2.07333 24.1266C3.45556 20.8911 5.35667 18.0622 7.77667 15.64C10.1989 13.22 13.0267 11.3189 16.26 9.93664C19.4933 8.5522 22.9622 7.85997 26.6667 7.85997C27.8333 7.85997 28.9589 7.92998 30.0433 8.06998C31.1278 8.20998 32.2244 8.41775 33.3333 8.69331V12.1933C32.2222 11.86 31.1256 11.61 30.0433 11.4433C28.9611 11.2766 27.8356 11.1933 26.6667 11.1933C20.1956 11.1933 14.6889 13.4644 10.1467 18.0066C5.60444 22.5489 3.33333 28.0555 3.33333 34.5266C3.33333 40.9978 5.60444 46.5044 10.1467 51.0466C14.6889 55.5889 20.1956 57.86 26.6667 57.86C33.1378 57.86 38.6444 55.5889 43.1867 51.0466C47.7289 46.5044 50 40.9933 50 34.5133C50 33.9111 49.9722 33.2955 49.9167 32.6666C49.8611 32.04 49.7567 31.4211 49.6033 30.81H52.9733C53.0844 31.3344 53.1733 31.9322 53.24 32.6033C53.3022 33.2744 53.3333 33.9155 53.3333 34.5266C53.3333 38.2311 52.6422 41.7 51.26 44.9333C49.8778 48.1689 47.9778 50.9966 45.56 53.4166C43.1378 55.8366 40.3111 57.7366 37.08 59.1166C33.8467 60.5011 30.3789 61.1933 26.6767 61.1933ZM37.1533 47.3733L25 35.22V17.86H28.3333V33.8333L39.5133 45.0133L37.1533 47.3733ZM50 24.14V14.14H40V10.8066H50V0.806641H53.3333V10.8066H63.3333V14.14H53.3333V24.14H50Z" fill="#E79423"/>
</svg>
