<svg width="79" height="79" viewBox="0 0 79 79" fill="none" xmlns="http://www.w3.org/2000/svg">
<path d="M72.9934 40.0045C73.4106 32.8125 71.6314 25.6637 67.892 19.5063C64.1525 13.3488 58.6295 8.47365 52.0554 5.5275C45.4814 2.58135 38.167 1.7034 31.0825 3.01012C23.9979 4.31684 17.4781 7.74647 12.3877 12.8441C7.29728 17.9417 3.8769 24.4664 2.58024 31.5528C1.28357 38.6392 2.17189 45.9523 5.12737 52.5222C8.08285 59.092 12.9658 64.6082 19.1286 68.3389C25.2914 72.0696 32.4427 73.8386 39.634 73.4112M4.36806 26.1097H70.6842M4.36806 49.794H47.3946" stroke="#E79423" stroke-width="3" stroke-linecap="round" stroke-linejoin="round"/>
<path d="M35.5524 2.42534C28.9024 13.0818 25.3768 25.3907 25.3768 37.9518C25.3768 50.513 28.9024 62.8219 35.5524 73.4783M39.4998 2.42534C47.9519 15.9675 51.2984 32.0798 48.938 47.8677M65.1578 77.4257V53.7414M65.1578 53.7414L77 65.5835M65.1578 53.7414L53.3156 65.5835" stroke="#E79423" stroke-width="3" stroke-linecap="round" stroke-linejoin="round"/>
</svg>
