<svg width="80" height="56" viewBox="0 0 80 56" fill="none" xmlns="http://www.w3.org/2000/svg">
<path fill-rule="evenodd" clip-rule="evenodd" d="M26 28C33.734 28 40 21.734 40 14C40 6.266 33.734 0 26 0C18.266 0 12 6.266 12 14C12 21.734 18.266 28 26 28ZM36 14C36 19.526 31.526 24 26 24C20.474 24 16 19.526 16 14C16 8.474 20.474 4 26 4C31.526 4 36 8.474 36 14ZM0 56V44.8C0 36.288 17.322 32 26 32C31.772 32 41.37 33.898 47.15 37.674C51.27 36.56 55.788 36 59 36C62.716 36 67.702 36.748 71.82 38.26C73.872 39.016 75.838 40.008 77.324 41.292C78.822 42.586 80 44.336 80 46.532V56H0ZM4 44.8C4 44.166 4.292 43.298 5.532 42.17C6.798 41.018 8.746 39.902 11.212 38.93C16.154 36.98 22.154 36 26 36C29.846 36 35.848 36.98 40.786 38.93C43.254 39.902 45.202 41.018 46.466 42.17C47.708 43.298 48 44.166 48 44.8V52H4V44.8ZM50.706 40.94C53.732 40.314 56.766 40 59 40C62.294 40 66.806 40.68 70.44 42.016C72.258 42.684 73.728 43.472 74.71 44.32C75.68 45.158 76 45.894 76 46.534V52H52V44.8C52 43.4 51.53 42.11 50.706 40.94ZM70 21C70 27.078 65.078 32 59 32C57.5554 32.0003 56.1249 31.7159 54.7902 31.1632C53.4555 30.6105 52.2427 29.8003 51.2212 28.7788C50.1997 27.7573 49.3895 26.5445 48.8368 25.2098C48.2841 23.8751 47.9997 22.4446 48 21C48 14.922 52.922 10 59 10C65.078 10 70 14.922 70 21ZM59 28C62.868 28 66 24.868 66 21C66 17.132 62.868 14 59 14C58.0806 13.9995 57.1701 14.1802 56.3206 14.5318C55.4711 14.8834 54.6992 15.399 54.0491 16.0491C53.399 16.6992 52.8834 17.4711 52.5318 18.3206C52.1802 19.1701 51.9995 20.0806 52 21C52 24.868 55.132 28 59 28Z" fill="#E79423"/>
</svg>
