<svg width="85" height="70" viewBox="0 0 85 70" fill="none" xmlns="http://www.w3.org/2000/svg">
<path d="M40.8127 11.9313L42.5 14.5829L44.1873 11.9313C47.8751 6.1362 54.3848 2.42578 61.8182 2.42578C73.4636 2.42578 83 11.9622 83 23.6076C83 28.8013 80.6089 34.1823 76.7466 39.449C72.8995 44.695 67.7265 49.645 62.4835 53.9347C57.2504 58.2163 52.0072 61.792 48.0669 64.2995C46.0987 65.552 44.4603 66.535 43.317 67.2031C43.0088 67.3833 42.7366 67.5405 42.5038 67.6738C42.2705 67.5392 41.9976 67.3804 41.6884 67.1984C40.5449 66.5252 38.9062 65.5354 36.9377 64.2753C32.9967 61.7524 27.7527 58.1583 22.5186 53.864C17.2746 49.5615 12.1004 44.6047 8.25249 39.3662C4.38818 34.1055 2 28.7497 2 23.6076C2 11.9622 11.5364 2.42578 23.1818 2.42578C30.6152 2.42578 37.1249 6.1362 40.8127 11.9313Z" stroke="#E79423" stroke-width="4"/>
</svg>
