<svg width="76" height="68" viewBox="0 0 76 68" fill="none" xmlns="http://www.w3.org/2000/svg">
<path d="M59.9898 17.0318H15.9405C14.4655 17.0318 13.2706 18.2266 13.2706 19.7017V63.7509C13.2706 65.226 14.4655 66.4208 15.9386 66.4208H59.9898C61.4629 66.4208 62.6597 65.226 62.6597 63.7509V19.7017C62.6597 18.2266 61.4629 17.0318 59.9898 17.0318Z" stroke="#E79423" stroke-width="3" stroke-linecap="round" stroke-linejoin="round"/>
<path d="M62.4028 55.3132L66.4504 55.7374C67.1544 55.8109 67.8587 55.6019 68.4086 55.1564C68.9585 54.7108 69.309 54.0652 69.383 53.3613L73.9853 9.55338C74.0594 8.84946 73.8509 8.14492 73.4057 7.59463C72.9606 7.04435 72.3151 6.69337 71.6112 6.61884L27.7993 2.01465C27.4506 1.97797 27.0981 2.01033 26.7619 2.10989C26.4258 2.20945 26.1125 2.37425 25.84 2.59489C25.5675 2.81553 25.3411 3.08768 25.1738 3.3958C25.0065 3.70393 24.9015 4.04199 24.8648 4.39069L23.5513 16.8917" stroke="#E79423" stroke-width="3" stroke-linecap="round" stroke-linejoin="round"/>
<path d="M24.5418 7.7261L4.38922 9.84722C2.92389 10.0029 1.85944 11.3145 2.01512 12.7818L6.62515 56.5878C6.78083 58.055 8.09242 59.1175 9.55969 58.9638L13.0002 58.6019M23.4715 28.842H52.4589M23.4715 37.4315H52.4589M23.4715 46.023H52.4589M23.4715 54.6126H36.891" stroke="#E79423" stroke-width="3" stroke-linecap="round" stroke-linejoin="round"/>
</svg>
